HIERARCHY
ROOT Hips
{
	OFFSET 49.647099 -10.441416 100.608002
	CHANNELS 6 Xposition Yposition Zposition Xrotation Yrotation Zrotation
	JOINT spine
	{
		OFFSET 0.000000 -0.507027 8.817047
		CHANNELS 3 Xrotation Yrotation Zrotation
		JOINT spine1
		{
			OFFSET 0.000000 -0.000002 10.776596
			CHANNELS 3 Xrotation Yrotation Zrotation
			JOINT spine2
			{
				OFFSET 0.000000 -0.000001 10.325897
				CHANNELS 3 Xrotation Yrotation Zrotation
				JOINT Neck
				{
					OFFSET 0.000000 -1.263955 26.511002
					CHANNELS 3 Xrotation Yrotation Zrotation
					JOINT Head
					{
						OFFSET 0.000000 -0.000001 8.009659
						CHANNELS 3 Xrotation Yrotation Zrotation
						End Site
						{
							OFFSET 0.000000 6.393857 19.387894
						}
					}
				}
				JOINT RightShoulder
				{
					OFFSET -4.347950 0.605420 11.151199
					CHANNELS 3 Xrotation Yrotation Zrotation
					JOINT RightArm
					{
						OFFSET 0.000000 -0.000003 14.625793
						CHANNELS 3 Xrotation Yrotation Zrotation
						JOINT RightArmRoll
						{
							OFFSET 0.000000 -0.000001 7.383392
							CHANNELS 3 Xrotation Yrotation Zrotation
							JOINT RightForeArm
							{
								OFFSET 0.000000 -0.000004 21.505203
								CHANNELS 3 Xrotation Yrotation Zrotation
								JOINT RightForeArmRoll
								{
									OFFSET 0.000000 -0.000001 8.285324
									CHANNELS 3 Xrotation Yrotation Zrotation
									JOINT RightHand
									{
										OFFSET 0.000000 -0.000003 16.626801
										CHANNELS 3 Xrotation Yrotation Zrotation
										End Site
										{
											OFFSET 0.000000 0.000000 0.100006
										}
									}
								}
							}
						}
					}
				}
				JOINT LeftShoulder
				{
					OFFSET 4.347950 0.605420 11.151199
					CHANNELS 3 Xrotation Yrotation Zrotation
					JOINT LeftArm
					{
						OFFSET 0.000000 -0.000003 14.625793
						CHANNELS 3 Xrotation Yrotation Zrotation
						JOINT LeftArmRoll
						{
							OFFSET 0.000000 -0.000001 7.383392
							CHANNELS 3 Xrotation Yrotation Zrotation
							JOINT LeftForeArm
							{
								OFFSET 0.000000 -0.000004 21.505203
								CHANNELS 3 Xrotation Yrotation Zrotation
								JOINT LeftForeArmRoll
								{
									OFFSET 0.000000 -0.000001 8.285324
									CHANNELS 3 Xrotation Yrotation Zrotation
									JOINT LeftHand
									{
										OFFSET 0.000000 -0.000003 16.626801
										CHANNELS 3 Xrotation Yrotation Zrotation
										End Site
										{
											OFFSET 0.000000 0.000000 0.100006
										}
									}
								}
							}
						}
					}
				}
			}
		}
	}
	JOINT RightUpLeg
	{
		OFFSET -7.815102 1.202170 -1.433090
		CHANNELS 3 Xrotation Yrotation Zrotation
		JOINT RightUpLegRoll
		{
			OFFSET 0.000000 -0.000003 19.495895
			CHANNELS 3 Xrotation Yrotation Zrotation
			JOINT RightLeg
			{
				OFFSET 0.000000 0.000004 -24.142700
				CHANNELS 3 Xrotation Yrotation Zrotation
				JOINT RightLegRoll
				{
					OFFSET 0.000000 -0.000004 24.221703
					CHANNELS 3 Xrotation Yrotation Zrotation
					JOINT RightFoot
					{
						OFFSET 0.000000 -0.000004 20.160500
						CHANNELS 3 Xrotation Yrotation Zrotation
						JOINT RightToeBase
						{
							OFFSET 0.000000 -0.000003 16.853195
							CHANNELS 3 Xrotation Yrotation Zrotation
							End Site
							{
								OFFSET 0.007145 0.940780 8.161865
							}
						}
					}
				}
			}
		}
	}
	JOINT LeftUpLeg
	{
		OFFSET 7.815102 1.202170 -1.433090
		CHANNELS 3 Xrotation Yrotation Zrotation
		JOINT LeftUpLegRoll
		{
			OFFSET 0.000000 -0.000003 19.496002
			CHANNELS 3 Xrotation Yrotation Zrotation
			JOINT LeftLeg
			{
				OFFSET 0.000000 -0.000004 24.142593
				CHANNELS 3 Xrotation Yrotation Zrotation
				JOINT LeftLegRoll
				{
					OFFSET 0.000000 -0.000005 24.445602
					CHANNELS 3 Xrotation Yrotation Zrotation
					JOINT LeftFoot
					{
						OFFSET 0.000000 -0.000003 19.936600
						CHANNELS 3 Xrotation Yrotation Zrotation
						JOINT LeftToeBase
						{
							OFFSET 0.000000 -0.000003 16.853195
							CHANNELS 3 Xrotation Yrotation Zrotation
							End Site
							{
								OFFSET -0.032013 0.940779 8.161865
							}
						}
					}
				}
			}
		}
	}
}
MOTION
Frames: 7
Frame Time: 0.041667
48.209396 -9.087196 100.161003 3.699632 -0.307284 7.156028 -1.866940 0.198957 0.517900 0.267277 0.386111 1.040238 1.912257 0.398543 1.035535 5.700418 31.752750 -0.975671 10.082838 -21.405152 0.660170 4.376661 -30.645577 10.131777 -250.532732 -27.661528 -253.437748 -0.000001 -0.000001 0.000000 52.526142 -7.819872 1.938282 -0.000000 0.000007 -3.002281 -5.000212 -7.998772 0.000150 -46.350323 62.276613 53.999486 -87.941131 132.697516 141.704050 0.000002 -0.000002 -0.000003 103.122920 -13.420755 23.235691 -0.000000 -0.000001 3.000022 -5.000231 7.998722 -0.000169 -7.800353 -179.906855 -1.534858 -179.999991 0.000005 -0.957001 171.707868 -2.156247 -0.592166 -0.000001 -0.000000 0.120649 68.789369 7.532852 0.492630 25.450412 -7.364009 -0.000809 -11.496907 176.054533 1.537537 -0.000005 -0.000004 -0.962736 -14.656187 3.426525 0.937805 -0.000002 0.000003 -0.204577 69.811063 -6.856933 -2.160637 25.665329 7.350270 -0.313412 
48.249195 -9.113621 100.167999 3.707347 -0.319942 6.879881 -1.896090 0.193840 0.505452 0.209055 0.375904 1.015319 1.854032 0.388039 1.010739 5.815045 31.280081 -0.840605 9.963181 -20.941623 0.754813 4.382502 -31.107946 10.037801 -250.145460 -27.919443 -253.728687 0.000002 -0.000001 -0.000001 53.147983 -7.841529 1.998192 0.000001 0.000009 -3.002274 -5.000208 -7.998772 0.000151 -45.998630 62.127715 53.623644 -87.903319 132.881221 141.335083 -0.000002 0.000000 -0.000001 103.087369 -13.336806 23.083674 0.000001 0.000000 3.000022 -5.000233 7.998721 -0.000176 -7.787649 -179.885067 -1.527618 -179.999991 0.000005 -0.956002 171.787331 -2.157666 -0.590317 -0.000001 0.000000 0.116133 68.730206 7.528862 0.509510 25.450709 -7.364008 -0.000772 -11.416619 176.061240 1.516414 -0.000005 -0.000005 -0.964006 -14.625373 3.454917 0.938658 -0.000002 0.000003 -0.204418 69.835522 -6.856595 -2.159365 25.688664 7.350214 -0.348556 
48.271301 -9.141247 100.174019 3.716904 -0.331262 6.604540 -1.925179 0.188636 0.492775 0.150955 0.365542 0.989946 1.795939 0.377373 0.985491 5.933515 30.794273 -0.708194 9.840836 -20.466023 0.846212 4.379857 -31.576207 9.933226 -249.761494 -28.179231 -254.037685 0.000001 -0.000001 0.000001 53.768339 -7.854060 2.056466 -0.000000 0.000008 -3.002263 -5.000209 -7.998776 0.000154 -45.639696 61.976563 53.239077 -87.861757 133.072084 140.950284 -0.000001 -0.000002 -0.000002 103.045268 -13.248727 22.922501 -0.000001 0.000001 3.000023 -5.000234 7.998724 -0.000171 -7.779402 -179.866243 -1.522114 -179.999991 0.000005 -0.953996 171.862845 -2.158075 -0.588483 -0.000002 0.000000 0.111634 68.671890 7.524439 0.527343 25.451418 -7.364012 -0.000680 -11.339719 176.069013 1.495326 -0.000005 -0.000004 -0.965223 -14.596058 3.482945 0.939532 -0.000001 0.000003 -0.204249 69.860520 -6.856291 -2.158066 25.711689 7.350163 -0.383306 
48.326195 -9.153237 100.179001 3.728418 -0.341080 6.330225 -1.954168 0.183311 0.479851 0.093045 0.354952 0.964067 1.738035 0.366474 0.959743 6.055504 30.294966 -0.578658 9.716178 -19.977718 0.934096 4.367983 -32.050700 9.817297 -249.382009 -28.440860 -254.367938 -0.000004 -0.000001 -0.000002 54.387058 -7.857203 2.113115 0.000002 0.000013 -3.002252 -5.000207 -7.998777 0.000152 -45.273735 61.823047 52.845908 -87.815995 133.270474 140.548013 -0.000002 -0.000003 -0.000002 102.996159 -13.156102 22.753034 0.000001 -0.000001 3.000019 -5.000230 7.998722 -0.000171 -7.776158 -179.850383 -1.518620 -179.999991 0.000005 -0.951999 171.933675 -2.156480 -0.586533 -0.000001 -0.000000 0.107153 68.614701 7.519486 0.546299 25.452628 -7.364009 -0.000531 -11.266861 176.074887 1.474818 -0.000005 -0.000005 -0.966376 -14.568642 3.510601 0.940463 -0.000001 0.000002 -0.204070 69.886154 -6.855956 -2.156723 25.734312 7.350100 -0.417339 
48.344597 -9.182320 100.177002 3.742021 -0.349228 6.057140 -1.983038 0.177826 0.466665 0.035391 0.344063 0.937653 1.680382 0.355270 0.933459 6.180694 29.781500 -0.452186 9.589545 -19.475975 1.018168 4.346065 -32.531358 9.689230 -249.008425 -28.704232 -254.722370 0.000001 0.000000 0.000001 55.003681 -7.850765 2.168192 -0.000002 0.000010 -3.002248 -5.000209 -7.998776 0.000154 -44.900424 61.667278 52.443603 -87.765786 133.477182 140.126686 -0.000001 -0.000003 0.000001 102.939598 -13.058984 22.571272 0.000004 -0.000001 3.000024 -5.000230 7.998722 -0.000171 -7.778463 -179.836518 -1.517512 -179.999991 0.000005 -0.950006 171.999080 -2.152863 -0.584513 -0.000001 -0.000000 0.102700 68.558816 7.513947 0.566650 25.454448 -7.364011 -0.000306 -11.198328 176.079845 1.454620 -0.000005 -0.000004 -0.967454 -14.543530 3.537857 0.941479 -0.000002 0.000002 -0.203883 69.912225 -6.855651 -2.155559 25.756126 7.350049 -0.450293 
48.390198 -9.189468 100.182983 3.757835 -0.355548 5.785511 -2.011741 0.172150 0.453195 -0.021938 0.332806 0.910665 1.623059 0.343690 0.906608 6.308776 29.253287 -0.328968 9.461327 -18.960250 1.098152 4.313267 -33.018412 9.548193 -248.641890 -28.969527 -255.104096 -0.000002 -0.000003 -0.000003 55.618244 -7.834324 2.221597 0.000000 0.000009 -3.002243 -5.000210 -7.998773 0.000151 -44.519791 61.509221 52.032128 -87.711104 133.692566 139.685073 0.000000 -0.000001 -0.000003 102.875674 -12.956558 22.381160 0.000000 0.000002 3.000024 -5.000231 7.998723 -0.000171 -7.786872 -179.825630 -1.518904 -179.999991 0.000005 -0.947997 172.058325 -2.148223 -0.582594 -0.000002 -0.000000 0.098280 68.504359 7.507831 0.588287 25.456870 -7.364007 -0.000007 -11.134508 176.084872 1.434472 -0.000005 -0.000004 -0.968450 -14.520910 3.564701 0.942599 -0.000001 0.000003 -0.203689 69.939040 -6.855349 -2.154349 25.777139 7.350011 -0.481855 
48.420597 -9.216391 100.192001 3.776508 -0.360370 5.515666 -2.040478 0.166381 0.439333 -0.079344 0.321386 0.882881 1.565657 0.331938 0.878961 6.439815 28.710642 -0.207228 9.330215 -18.430407 1.174933 4.269848 -33.512658 9.392592 -248.280928 -29.237079 -255.509563 0.000001 -0.000002 -0.000002 56.231305 -7.811084 2.272618 0.000001 0.000008 -3.002231 -5.000211 -7.998776 0.000155 -44.133715 61.348356 51.614353 -87.653996 133.916323 139.225456 0.000001 -0.000002 -0.000001 102.806983 -12.848720 22.179007 -0.000000 0.000001 3.000022 -5.000232 7.998725 -0.000170 -7.801883 -179.816710 -1.523003 -179.999991 0.000005 -0.946004 172.111615 -2.140570 -0.581506 -0.000002 -0.000000 0.093858 68.451685 7.500905 0.611846 25.459701 -7.364008 0.000446 -11.076109 176.088998 1.415058 -0.000006 -0.000004 -0.969371 -14.500594 3.591068 0.943806 -0.000001 0.000003 -0.203478 69.966183 -6.855073 -2.153324 25.796636 7.349991 -0.513620 
